<?xml version="1.0" encoding="UTF-8" standalone="no"?>
<!DOCTYPE svg PUBLIC "-//W3C//DTD SVG 1.1//EN"
 "http://www.w3.org/Graphics/SVG/1.1/DTD/svg11.dtd">
<!-- Generated by graphviz version 2.43.0 (0)
 -->
<!-- Title: Cayley Pages: 1 -->
<svg width="198pt" height="168pt"
 viewBox="0.00 0.00 198.00 168.00" xmlns="http://www.w3.org/2000/svg" xmlns:xlink="http://www.w3.org/1999/xlink">
<g id="graph0" class="graph" transform="scale(1 1) rotate(0) translate(4 164)">
<title>Cayley</title>
<polygon fill="white" stroke="transparent" points="-4,4 -4,-164 194,-164 194,4 -4,4"/>
<!-- 0 -->
<g id="node1" class="node">
<title>0</title>
<polygon fill="none" stroke="black" points="72,-127 0,-127 0,-89 72,-89 72,-127"/>
<text text-anchor="middle" x="36" y="-111.8" font-family="Times,serif" font-size="14.00">[2, 1, 1]</text>
<text text-anchor="middle" x="36" y="-96.8" font-family="Times,serif" font-size="14.00">rep: a</text>
</g>
<!-- 0&#45;&gt;0 -->
<g id="edge2" class="edge">
<title>0&#45;&gt;0</title>
<path fill="none" stroke="black" d="M25.45,-127.04C23.99,-136.53 27.5,-145 36,-145 41.18,-145 44.51,-141.86 45.99,-137.25"/>
<polygon fill="black" stroke="black" points="49.49,-137.22 46.55,-127.04 42.5,-136.83 49.49,-137.22"/>
<text text-anchor="middle" x="36" y="-148.8" font-family="Times,serif" font-size="14.00">1</text>
</g>
<!-- 2 -->
<g id="node3" class="node">
<title>2</title>
<polygon fill="none" stroke="black" points="190,-82 118,-82 118,-44 190,-44 190,-82"/>
<text text-anchor="middle" x="154" y="-66.8" font-family="Times,serif" font-size="14.00">[1, 1, 1]</text>
<text text-anchor="middle" x="154" y="-51.8" font-family="Times,serif" font-size="14.00">rep: aa</text>
</g>
<!-- 0&#45;&gt;2 -->
<g id="edge1" class="edge">
<title>0&#45;&gt;2</title>
<path fill="none" stroke="black" d="M72.12,-94.38C83.48,-89.97 96.25,-85.02 108.21,-80.37"/>
<polygon fill="black" stroke="black" points="109.54,-83.61 117.6,-76.73 107.01,-77.09 109.54,-83.61"/>
<text text-anchor="middle" x="95" y="-89.8" font-family="Times,serif" font-size="14.00">0</text>
</g>
<!-- 1 -->
<g id="node2" class="node">
<title>1</title>
<polygon fill="none" stroke="black" points="72,-38 0,-38 0,0 72,0 72,-38"/>
<text text-anchor="middle" x="36" y="-22.8" font-family="Times,serif" font-size="14.00">[1, 1, 2]</text>
<text text-anchor="middle" x="36" y="-7.8" font-family="Times,serif" font-size="14.00">rep: b</text>
</g>
<!-- 1&#45;&gt;1 -->
<g id="edge4" class="edge">
<title>1&#45;&gt;1</title>
<path fill="none" stroke="black" d="M25.45,-38.04C23.99,-47.53 27.5,-56 36,-56 41.18,-56 44.51,-52.86 45.99,-48.25"/>
<polygon fill="black" stroke="black" points="49.49,-48.22 46.55,-38.04 42.5,-47.83 49.49,-48.22"/>
<text text-anchor="middle" x="36" y="-59.8" font-family="Times,serif" font-size="14.00">1</text>
</g>
<!-- 1&#45;&gt;2 -->
<g id="edge3" class="edge">
<title>1&#45;&gt;2</title>
<path fill="none" stroke="black" d="M72.12,-32.32C83.48,-36.63 96.25,-41.47 108.21,-46.01"/>
<polygon fill="black" stroke="black" points="107.01,-49.3 117.6,-49.57 109.49,-42.75 107.01,-49.3"/>
<text text-anchor="middle" x="95" y="-45.8" font-family="Times,serif" font-size="14.00">0</text>
</g>
<!-- 2&#45;&gt;2 -->
<g id="edge5" class="edge">
<title>2&#45;&gt;2</title>
<path fill="none" stroke="black" d="M148.72,-82.04C147.99,-91.53 149.75,-100 154,-100 156.59,-100 158.25,-96.86 158.99,-92.25"/>
<polygon fill="black" stroke="black" points="162.5,-92.13 159.28,-82.04 155.5,-91.94 162.5,-92.13"/>
<text text-anchor="middle" x="154" y="-103.8" font-family="Times,serif" font-size="14.00">0</text>
</g>
<!-- 2&#45;&gt;2 -->
<g id="edge6" class="edge">
<title>2&#45;&gt;2</title>
<path fill="none" stroke="black" d="M145.06,-82.17C140.71,-99.47 143.69,-118 154,-118 162.3,-118 165.84,-106 164.65,-92.3"/>
<polygon fill="black" stroke="black" points="168.05,-91.44 162.94,-82.17 161.15,-92.61 168.05,-91.44"/>
<text text-anchor="middle" x="154" y="-121.8" font-family="Times,serif" font-size="14.00">1</text>
</g>
</g>
</svg>
