<?xml version="1.0" encoding="UTF-8" standalone="no"?>
<!DOCTYPE svg PUBLIC "-//W3C//DTD SVG 1.1//EN"
 "http://www.w3.org/Graphics/SVG/1.1/DTD/svg11.dtd">
<!-- Generated by graphviz version 2.43.0 (0)
 -->
<!-- Title: Cayley Pages: 1 -->
<svg width="427pt" height="147pt"
 viewBox="0.00 0.00 426.78 147.19" xmlns="http://www.w3.org/2000/svg" xmlns:xlink="http://www.w3.org/1999/xlink">
<g id="graph0" class="graph" transform="scale(1 1) rotate(0) translate(4 143.19)">
<title>Cayley</title>
<polygon fill="white" stroke="transparent" points="-4,4 -4,-143.19 422.78,-143.19 422.78,4 -4,4"/>
<!-- 0 -->
<g id="node1" class="node">
<title>0</title>
<ellipse fill="none" stroke="black" cx="35.1" cy="-73.1" rx="35.19" ry="35.19"/>
<text text-anchor="middle" x="35.1" y="-69.4" font-family="Times,serif" font-size="14.00">[1, 0]</text>
</g>
<!-- 1 -->
<g id="node2" class="node">
<title>1</title>
<ellipse fill="none" stroke="black" cx="267.48" cy="-71.1" rx="35.19" ry="35.19"/>
<text text-anchor="middle" x="267.48" y="-67.4" font-family="Times,serif" font-size="14.00">[0, 0]</text>
</g>
<!-- 0&#45;&gt;1 -->
<g id="edge2" class="edge">
<title>0&#45;&gt;1</title>
<path fill="none" stroke="black" d="M70.37,-76.23C84.54,-77.38 101.14,-78.53 116.19,-79.1 147.37,-80.26 155.23,-80.65 186.39,-79.1 198.05,-78.52 210.62,-77.46 222.28,-76.31"/>
<polygon fill="black" stroke="black" points="222.66,-79.79 232.24,-75.27 221.93,-72.82 222.66,-79.79"/>
<text text-anchor="middle" x="151.29" y="-83.9" font-family="Times,serif" font-size="14.00">1</text>
</g>
<!-- 2 -->
<g id="node3" class="node">
<title>2</title>
<ellipse fill="none" stroke="black" cx="151.29" cy="-35.1" rx="35.19" ry="35.19"/>
<text text-anchor="middle" x="151.29" y="-31.4" font-family="Times,serif" font-size="14.00">[0, 1]</text>
</g>
<!-- 0&#45;&gt;2 -->
<g id="edge1" class="edge">
<title>0&#45;&gt;2</title>
<path fill="none" stroke="black" d="M68.51,-62.31C80.81,-58.22 95,-53.5 108.07,-49.15"/>
<polygon fill="black" stroke="black" points="109.41,-52.39 117.79,-45.91 107.2,-45.75 109.41,-52.39"/>
<text text-anchor="middle" x="93.19" y="-58.9" font-family="Times,serif" font-size="14.00">0</text>
</g>
<!-- 1&#45;&gt;1 -->
<g id="edge4" class="edge">
<title>1&#45;&gt;1</title>
<path fill="none" stroke="black" d="M256.61,-104.54C256.67,-115.48 260.29,-124.19 267.48,-124.19 272.21,-124.19 275.39,-120.44 277.04,-114.77"/>
<polygon fill="black" stroke="black" points="280.55,-114.91 278.36,-104.54 273.6,-114.01 280.55,-114.91"/>
<text text-anchor="middle" x="267.48" y="-127.99" font-family="Times,serif" font-size="14.00">1</text>
</g>
<!-- 3 -->
<g id="node4" class="node">
<title>3</title>
<ellipse fill="none" stroke="black" cx="383.68" cy="-71.1" rx="35.19" ry="35.19"/>
<text text-anchor="middle" x="383.68" y="-67.4" font-family="Times,serif" font-size="14.00">[1, 1]</text>
</g>
<!-- 1&#45;&gt;3 -->
<g id="edge3" class="edge">
<title>1&#45;&gt;3</title>
<path fill="none" stroke="black" d="M300.13,-84.34C309.82,-87.01 320.56,-88.6 330.58,-87.1 333.86,-86.61 337.21,-85.95 340.56,-85.18"/>
<polygon fill="black" stroke="black" points="341.71,-88.5 350.51,-82.61 339.95,-81.72 341.71,-88.5"/>
<text text-anchor="middle" x="325.58" y="-90.9" font-family="Times,serif" font-size="14.00">0</text>
</g>
<!-- 2&#45;&gt;0 -->
<g id="edge5" class="edge">
<title>2&#45;&gt;0</title>
<path fill="none" stroke="black" d="M116.45,-29.69C107.1,-29.34 97.08,-30.08 88.19,-33.1 81.59,-35.34 75.17,-38.79 69.22,-42.75"/>
<polygon fill="black" stroke="black" points="66.9,-40.11 60.88,-48.83 71.02,-45.77 66.9,-40.11"/>
<text text-anchor="middle" x="93.19" y="-36.9" font-family="Times,serif" font-size="14.00">0</text>
</g>
<!-- 2&#45;&gt;1 -->
<g id="edge6" class="edge">
<title>2&#45;&gt;1</title>
<path fill="none" stroke="black" d="M185.01,-45.41C197.2,-49.25 211.21,-53.67 224.13,-57.74"/>
<polygon fill="black" stroke="black" points="223.17,-61.11 233.76,-60.78 225.27,-54.43 223.17,-61.11"/>
<text text-anchor="middle" x="209.39" y="-57.9" font-family="Times,serif" font-size="14.00">1</text>
</g>
<!-- 3&#45;&gt;1 -->
<g id="edge7" class="edge">
<title>3&#45;&gt;1</title>
<path fill="none" stroke="black" d="M348.52,-68.5C339.44,-68.07 329.64,-67.84 320.58,-68.1 318.05,-68.17 315.44,-68.26 312.81,-68.37"/>
<polygon fill="black" stroke="black" points="312.49,-64.88 302.66,-68.85 312.81,-71.87 312.49,-64.88"/>
<text text-anchor="middle" x="325.58" y="-71.9" font-family="Times,serif" font-size="14.00">0</text>
</g>
<!-- 3&#45;&gt;1 -->
<g id="edge8" class="edge">
<title>3&#45;&gt;1</title>
<path fill="none" stroke="black" d="M353.51,-52.97C343.29,-48.6 331.61,-45.77 320.58,-48.1 316.5,-48.96 312.35,-50.16 308.26,-51.57"/>
<polygon fill="black" stroke="black" points="306.99,-48.31 298.91,-55.16 309.5,-54.84 306.99,-48.31"/>
<text text-anchor="middle" x="325.58" y="-51.9" font-family="Times,serif" font-size="14.00">1</text>
</g>
</g>
</svg>
