<?xml version="1.0" encoding="UTF-8" standalone="no"?>
<!DOCTYPE svg PUBLIC "-//W3C//DTD SVG 1.1//EN"
 "http://www.w3.org/Graphics/SVG/1.1/DTD/svg11.dtd">
<!-- Generated by graphviz version 2.43.0 (0)
 -->
<!-- Title: Cayley Pages: 1 -->
<svg width="138pt" height="51pt"
 viewBox="0.00 0.00 138.00 51.00" xmlns="http://www.w3.org/2000/svg" xmlns:xlink="http://www.w3.org/1999/xlink">
<g id="graph0" class="graph" transform="scale(1 1) rotate(0) translate(4 47)">
<title>Cayley</title>
<polygon fill="white" stroke="transparent" points="-4,4 -4,-47 134,-47 134,4 -4,4"/>
<!-- 0 -->
<g id="node1" class="node">
<title>0</title>
<ellipse fill="none" stroke="black" cx="21.5" cy="-21.5" rx="21.5" ry="21.5"/>
<text text-anchor="middle" x="21.5" y="-17.8" font-family="Times,serif" font-size="14.00">a</text>
</g>
<!-- 1 -->
<g id="node2" class="node">
<title>1</title>
<ellipse fill="none" stroke="black" cx="108.5" cy="-21.5" rx="21.5" ry="21.5"/>
<text text-anchor="middle" x="108.5" y="-17.8" font-family="Times,serif" font-size="14.00">ε</text>
</g>
<!-- 0&#45;&gt;1 -->
<g id="edge1" class="edge">
<title>0&#45;&gt;1</title>
<path fill="none" stroke="black" d="M43.08,-21.5C53.13,-21.5 65.44,-21.5 76.59,-21.5"/>
<polygon fill="black" stroke="black" points="76.82,-25 86.82,-21.5 76.82,-18 76.82,-25"/>
<text text-anchor="middle" x="65" y="-24.9" font-family="Times,serif" font-size="12.00">a</text>
</g>
<!-- 1&#45;&gt;0 -->
<g id="edge2" class="edge">
<title>1&#45;&gt;0</title>
<path fill="none" stroke="black" d="M90.18,-10.18C81.58,-5.85 70.92,-2.41 61,-4.5 57.35,-5.27 53.63,-6.41 50.01,-7.73"/>
<polygon fill="black" stroke="black" points="48.66,-4.5 40.78,-11.58 51.35,-10.97 48.66,-4.5"/>
<text text-anchor="middle" x="65" y="-7.9" font-family="Times,serif" font-size="12.00">a</text>
</g>
</g>
</svg>
